<svg id="Capa_1" enable-background="new 0 0 512.017 512.017" height="512" viewBox="0 0 512.017 512.017" width="512" xmlns="http://www.w3.org/2000/svg"><g><path d="m256.009 512.017c107.523 0 195-87.925 195-196 0-54.62-23.051-106.707-63.407-143.681-5.09-19.118-16.166-35.724-31.746-48.858l37.822-114.034-28.475-9.444-35.406 106.75c-20.913-10.099-46.102-15.733-73.788-15.733s-52.874 5.634-73.788 15.733l-35.334-106.533-28.475 9.444 37.75 113.817c-15.58 13.134-26.656 29.741-31.746 48.858-40.356 36.974-63.407 89.061-63.407 143.681 0 108.075 87.476 196 195 196zm0-391c24.719 0 46.8 5.246 64.25 14.488l-9.605 28.96c-1.737-1.075-3.568-2.106-5.51-3.077-13.375-6.687-30.825-10.37-49.135-10.37s-35.76 3.683-49.135 10.37c-1.943.971-3.773 2.002-5.51 3.077l-9.605-28.96c17.449-9.242 39.531-14.488 64.25-14.488zm44.529 73.948c-1.158 1.635 1.244 3.822-8.811 8.849-9.155 4.578-22.174 7.203-35.718 7.203s-26.563-2.625-35.718-7.203c-9.997-4.998-7.682-7.255-8.811-8.849.89-1.405 3.26-3.969 8.811-6.744 9.155-4.578 22.174-7.203 35.718-7.203s26.563 2.625 35.718 7.203c5.55 2.775 7.92 5.339 8.811 6.744zm-152.763-3.272 3.81-3.319c.922-2.863 1.724-17.541 15.08-33.228l14.469 43.625c1.128 12.847 10.163 24.089 25.739 31.877 13.375 6.688 30.825 10.37 49.135 10.37s35.76-3.683 49.135-10.37c15.576-7.788 24.611-19.029 25.739-31.877l14.469-43.625c13.319 15.643 14.187 30.456 15.08 33.228l3.81 3.319c36.076 31.438 56.767 76.752 56.767 124.325 0 91.533-74.019 166-165 166s-165-74.467-165-166c.001-47.573 20.691-92.888 56.767-124.325z"/><path d="m256.009 452.017c74.466 0 135-61.427 135-136h-30c0 58.448-47.103 106-105 106s-105-47.552-105-106h-30c0 74.465 60.436 136 135 136z"/></g></svg>