<svg id="Capa_1" enable-background="new 0 0 512 512" height="512" viewBox="0 0 512 512" width="512" xmlns="http://www.w3.org/2000/svg"><g><path d="m455.742 263.926c36.26-32.621 52.161-64.014 52.926-65.55l3.332-6.691-3.332-6.691c-.719-1.443-18.059-35.739-57.936-69.948-23.332-20.016-49.665-35.963-78.268-47.399-35.616-14.242-74.8-21.462-116.464-21.462s-80.848 7.22-116.464 21.461c-28.603 11.436-54.936 27.383-78.268 47.399-39.877 34.21-57.217 68.505-57.936 69.948l-3.332 6.692 3.332 6.691c.719 1.443 18.059 35.739 57.936 69.948 23.332 20.016 49.665 35.963 78.268 47.399 35.616 14.241 74.8 21.461 116.464 21.461 14.735 0 29.234-.91 43.345-2.712-1.732 7.653-2.647 15.613-2.647 23.783 0 59.309 48.202 107.56 107.451 107.56 59.248 0 107.45-48.251 107.45-107.56 0-40.604-22.594-76.025-55.857-94.329zm-25.526-126.967c25.739 21.844 41.128 43.97 47.764 54.722-7.248 11.731-24.892 36.955-55.03 60.664-6.107-1.083-12.39-1.649-18.803-1.649-5.372 0-10.653.397-15.815 1.163 8.359-18.348 13.019-38.726 13.019-60.173 0-35.815-12.995-68.649-34.512-94.027 22.889 9.786 44.051 22.899 63.377 39.3zm-289.599 54.726c0-63.687 51.76-115.5 115.383-115.5s115.383 51.813 115.383 115.5-51.76 115.5-115.383 115.5-115.383-51.813-115.383-115.5zm-58.833 54.725c-25.741-21.846-41.131-43.974-47.766-54.725 6.646-10.767 22.034-32.888 47.766-54.727 19.326-16.402 40.488-29.515 63.376-39.301-21.517 25.377-34.512 58.212-34.512 94.027s12.995 68.649 34.512 94.027c-22.888-9.786-44.05-22.899-63.376-39.301zm322.364 189.405c-42.723 0-77.481-34.793-77.481-77.56s34.758-77.56 77.481-77.56 77.481 34.793 77.481 77.56-34.758 77.56-77.481 77.56z"/><path d="m289.965 116.685c-7.711 0-14.975 1.954-21.324 5.393-4.156-.752-8.386-1.132-12.641-1.132-38.966 0-70.667 31.733-70.667 70.739s31.701 70.739 70.667 70.739 70.667-31.733 70.667-70.739c0-1.297-.036-2.595-.107-3.891 5.261-7.367 8.36-16.383 8.36-26.109 0-24.813-20.167-45-44.955-45zm0 30c8.263 0 14.985 6.729 14.985 15s-6.722 15-14.985 15-14.985-6.729-14.985-15 6.723-15 14.985-15zm-33.965 85.739c-22.441 0-40.698-18.275-40.698-40.739 0-19.018 13.086-35.033 30.717-39.499-.66 3.063-1.008 6.241-1.008 9.499 0 24.813 20.167 45 44.954 45 1.328 0 2.642-.058 3.941-.172-5.935 15.153-20.689 25.911-37.906 25.911z"/><path d="m419.133 316.777h-29.97v26.479h-26.451v30h26.451v26.478h29.97v-26.478h26.451v-30h-26.451z"/></g></svg>