<svg id="Guide" height="512" viewBox="0 0 512 512" width="512" xmlns="http://www.w3.org/2000/svg"><g fill="rgb(0,0,0)"><path d="m256 10a246 246 0 0 0 -173.948 419.948 246 246 0 1 0 347.9-347.9 244.386 244.386 0 0 0 -173.952-72.048zm165.463 411.463a234 234 0 0 1 -330.926-330.926 234 234 0 0 1 330.926 330.926z"/><path d="m256 44.55c-116.594 0-211.449 94.856-211.449 211.45s94.855 211.45 211.449 211.45 211.449-94.856 211.449-211.45-94.855-211.45-211.449-211.45zm0 410.9c-109.977 0-199.449-89.473-199.449-199.45s89.472-199.45 199.449-199.45 199.449 89.473 199.449 199.45-89.472 199.45-199.449 199.45z"/><path d="m256 85.717a170.182 170.182 0 0 0 -145.355 81.535 6 6 0 1 0 10.236 6.263 158.183 158.183 0 0 1 135.119-75.798 6 6 0 0 0 0-12z"/></g></svg>