<svg id="Capa_1" enable-background="new 0 0 510 510" height="512" viewBox="0 0 510 510" width="512" xmlns="http://www.w3.org/2000/svg"><path d="m495 204.457h-22.414c-12.402-25.039-37.999-41.652-67.018-41.652h-61.197c-23.787 0-46.439 11.256-60.002 30.452-15.512-11.14-43.425-10.997-58.737 0-13.551-19.178-36.194-30.452-60.002-30.452h-61.197c-29.038 0-54.623 16.628-67.018 41.652h-22.415c-8.284 0-15 6.716-15 15s6.716 15 15 15h14.741c-.207 5.069.097 10.189.947 15.287l4.855 29.128c9.61 57.662 80.373 80.575 133.769 61.96 37.171-12.958 69.393-52.652 69.393-115.087 0-14.516 32.591-14.338 32.591 0 0 62.062 31.962 102.039 69.393 115.087 53.982 18.818 124.238-4.774 133.769-61.96l4.855-29.128c.85-5.097 1.154-10.217.947-15.287h14.74c8.284 0 15-6.716 15-15s-6.716-15-15-15zm-335.564 108.048c-37.475 13.064-88.121-1.485-94.301-38.564l-4.855-29.128c-4.493-26.959 16.373-52.007 44.152-52.007h61.197c65.628-.001 49.405 100.316-6.193 119.699zm290.284-67.693-4.855 29.129c-6.192 37.15-56.928 51.594-94.301 38.564-55.583-19.377-71.946-119.699-6.193-119.699h61.197c27.805-.001 48.641 25.073 44.152 52.006z"/></svg>