<svg id="Capa_1" enable-background="new 0 0 510 510" height="512" viewBox="0 0 510 510" width="512" xmlns="http://www.w3.org/2000/svg"><g><path d="m479.553 238.798h30.447v-30h-30.479c-2.362-20.619-10.943-42.007-38.769-53.759l-.844-.327c-25.332-8.942-79.908-10.914-79.908-10.914h-230v.05c-20.579.48-40.749 4.102-59.908 10.864l-.844.327c-27.826 11.753-36.407 33.14-38.769 53.759h-30.479v30h30.447c1.771 17.024 6.715 37.963 16.497 56.536 1.714 3.254 3.534 6.344 5.446 9.287l-46.889 38.363 18.997 23.219 47.902-39.193c14.558 11.593 32.181 17.583 52.263 17.583 25.745 0 53.366-13.283 75.779-36.444 18.979-19.611 32.152-44.323 37.255-69.352h34.607c5.102 25.028 18.275 49.74 37.255 69.352 22.413 23.161 50.034 36.444 75.779 36.444 21.239 0 39.725-6.701 54.746-19.642l50.419 41.251 18.997-23.219-50.19-41.063c1.296-2.122 2.548-4.312 3.746-6.587 9.782-18.573 14.726-39.511 16.497-56.535zm-209.119-30h-30.869c-.963-9.591-3.553-18.445-7.711-26.141-1.701-3.148-3.676-6.098-5.887-8.859h58.064c-2.211 2.762-4.186 5.711-5.887 8.859-4.156 7.695-6.747 16.549-7.71 26.141zm-60.709 14.437c-2.052 22.573-13.293 45.919-30.84 64.052-16.547 17.098-36.816 27.306-54.221 27.306-22.655 0-39.394-10.873-51.175-33.24-10.204-19.373-13.825-42.684-13.825-56.76 0-24.419 5.273-35.025 20.855-41.747 16.7-5.839 34.352-8.86 52.399-9.048h3.535c14.868.149 29.978 2.21 45.022 6.196 7.771 2.058 31.424 8.325 28.25 43.241zm175.612 91.358c-17.405 0-37.674-10.208-54.221-27.306-17.547-18.133-28.788-41.479-30.84-64.052-3.174-34.917 20.479-41.183 28.251-43.242 15.63-4.141 31.33-6.206 46.757-6.206 18.672 0 36.943 3.025 54.198 9.058 15.582 6.722 20.855 17.328 20.855 41.747 0 14.076-3.621 37.387-13.825 56.76-11.781 22.368-28.52 33.241-51.175 33.241z"/></g></svg>