<svg id="Capa_1" enable-background="new 0 0 512 512" height="512" viewBox="0 0 512 512" width="512" xmlns="http://www.w3.org/2000/svg"><g><path d="m455.742 263.926c36.261-32.621 52.161-64.014 52.926-65.55l3.332-6.691-3.332-6.691c-.719-1.443-18.059-35.739-57.935-69.948-23.333-20.016-49.665-35.963-78.269-47.399-35.616-14.242-74.8-21.462-116.464-21.462s-80.848 7.22-116.465 21.461c-28.602 11.436-54.935 27.383-78.267 47.399-39.877 34.209-57.217 68.505-57.936 69.948l-3.332 6.692 3.332 6.691c.719 1.443 18.059 35.739 57.936 69.948 23.332 20.016 49.665 35.963 78.268 47.399 35.617 14.241 74.801 21.461 116.465 21.461 14.736 0 29.234-.91 43.345-2.712-1.732 7.653-2.647 15.613-2.647 23.783 0 59.309 48.202 107.56 107.45 107.56s107.45-48.251 107.45-107.56c0-40.604-22.593-76.026-55.857-94.329zm-25.526-126.967c25.739 21.844 41.128 43.971 47.765 54.722-7.247 11.731-24.89 36.954-55.03 60.664-6.107-1.083-12.389-1.649-18.802-1.649-5.372 0-10.653.397-15.816 1.163 8.359-18.348 13.02-38.726 13.02-60.174 0-35.815-12.995-68.649-34.512-94.027 22.888 9.786 44.049 22.899 63.375 39.301zm-289.599 54.726c0-63.687 51.76-115.5 115.383-115.5 63.622 0 115.383 51.813 115.383 115.5s-51.761 115.5-115.383 115.5-115.383-51.813-115.383-115.5zm-58.833 54.725c-25.741-21.846-41.131-43.974-47.766-54.725 6.646-10.767 22.034-32.888 47.766-54.727 19.326-16.402 40.488-29.515 63.376-39.301-21.517 25.378-34.512 58.212-34.512 94.027s12.995 68.649 34.512 94.027c-22.888-9.786-44.05-22.899-63.376-39.301zm322.365 189.405c-42.723 0-77.481-34.793-77.481-77.56s34.758-77.56 77.481-77.56 77.481 34.793 77.481 77.56-34.758 77.56-77.481 77.56z"/><path d="m289.966 116.685c-7.712 0-14.976 1.954-21.325 5.394-4.156-.752-8.385-1.132-12.64-1.132-38.966 0-70.667 31.733-70.667 70.739s31.701 70.739 70.667 70.739 70.667-31.733 70.667-70.739c0-1.296-.036-2.595-.107-3.892 5.261-7.367 8.359-16.382 8.359-26.108 0-24.814-20.166-45.001-44.954-45.001zm0 30c8.263 0 14.985 6.729 14.985 15s-6.722 15-14.985 15-14.985-6.729-14.985-15 6.722-15 14.985-15zm-33.966 85.739c-22.441 0-40.698-18.275-40.698-40.739 0-19.018 13.086-35.033 30.717-39.499-.66 3.063-1.008 6.241-1.008 9.499 0 24.813 20.166 45 44.954 45 1.328 0 2.643-.058 3.942-.172-5.935 15.153-20.689 25.911-37.907 25.911z"/><path d="m362.712 343.255h82.873v30h-82.873z"/></g></svg>