<?xml version="1.0" encoding="UTF-8" standalone="no"?>
<svg
   xmlns:dc="http://purl.org/dc/elements/1.1/"
   xmlns:cc="http://creativecommons.org/ns#"
   xmlns:rdf="http://www.w3.org/1999/02/22-rdf-syntax-ns#"
   xmlns:svg="http://www.w3.org/2000/svg"
   xmlns="http://www.w3.org/2000/svg"
   id="svg2334"
   version="1.1"
   viewBox="0 0 90 90"
   height="90mm"
   width="90mm">
  <defs
     id="defs2328" />
  <metadata
     id="metadata2331">
    <rdf:RDF>
      <cc:Work
         rdf:about="">
        <dc:format>image/svg+xml</dc:format>
        <dc:type
           rdf:resource="http://purl.org/dc/dcmitype/StillImage" />
        <dc:title></dc:title>
      </cc:Work>
    </rdf:RDF>
  </metadata>
  <g
     transform="translate(0,-207)"
     id="layer1">
    <g
       id="g4482"
       transform="matrix(0.35277777,0,0,-0.35277777,8.9951845,535.5903)">
      <path
         id="path26"
         style="fill:#28292a;fill-opacity:1;fill-rule:nonzero;stroke:none;stroke-width:0.1"
         d="m 54.2969,815.07 c 0,0 13.5097,1.86 26.5793,0 13.0695,-1.87 14.8316,-2.6 14.8316,-2.6 0,0 -0.7344,6.02 -1.7621,6.9 -1.0281,0.88 -3.5242,2.06 -6.3144,1.61 -2.7903,-0.44 -17.0344,-2.34 -22.6145,-2.64 -5.5805,-0.29 -9.3984,-1.08 -10.7199,-1.57 -1.3219,-0.48 0,-1.7 0,-1.7" />
      <path
         id="path28"
         style="fill:#28292a;fill-opacity:1;fill-rule:nonzero;stroke:none;stroke-width:0.1"
         d="m 122.434,817.75 c 0,0 12.629,-1.76 14.097,-1.76 1.469,0 16.154,0.3 19.238,0 l 0.734,0.88 c 0,0 -7.93,2.4 -13.07,4.21 -5.139,1.81 -14.538,4.02 -17.034,4.16 -2.496,0.15 -3.671,-1.02 -3.965,-2.35 -0.294,-1.32 -0.881,-4.25 0,-5.14" />
      <path
         id="path30"
         style="fill:#28292a;fill-opacity:1;fill-rule:nonzero;stroke:none;stroke-width:0.1"
         d="m 166.338,784.05 c -4.677,-25.57 -31.53,-20.28 -38.764,-14.91 -7.234,5.37 -9.536,18.09 -9.865,24.23 -0.329,6.13 7.124,13.81 21.812,14.9 14.687,1.1 24.88,-3.83 27.401,-6.68 2.521,-2.85 0.329,-12.55 -0.584,-17.54 z M 86.727,769.14 c -7.234,-5.37 -34.0875,-10.66 -38.7641,14.91 -0.9133,4.99 -3.1055,14.69 -0.5848,17.54 2.5211,2.85 12.7145,7.78 27.402,6.68 14.6871,-1.09 22.1402,-8.77 21.8117,-14.9 -0.3289,-6.14 -2.6309,-18.86 -9.8648,-24.23 z m 89.833,37.89 c -4.315,2.49 -17.859,9.08 -36.966,6.69 -15.723,-1.97 -24.97,-5.32 -29.342,-7.31 -0.989,-0.45 -2.045,-0.67 -3.102,-0.67 -1.056,0 -2.113,0.22 -3.102,0.67 -4.371,1.99 -13.6183,5.34 -29.3414,7.31 -19.107,2.39 -32.6515,-4.2 -36.9664,-6.69 -0.8882,-0.52 -1.3336,-1.55 -1.1199,-2.55 l 1.5043,-7.05 c 0.2699,-1.26 1.4996,-2.08 2.7688,-1.84 l 0.7855,0.15 c 0,0 2.2399,-12.45 4.7031,-19.43 4.1321,-11.7 15.9028,-16.67 28.7633,-15.2 12.8606,1.46 17.2445,6.28 21.4828,15.19 4.2379,8.92 5.1149,14.91 10.5219,15.06 5.407,-0.15 6.284,-6.14 10.522,-15.06 4.239,-8.91 8.623,-13.73 21.483,-15.19 12.861,-1.47 24.631,3.5 28.764,15.2 2.463,6.98 4.703,19.43 4.703,19.43 l 0.785,-0.15 c 1.269,-0.24 2.499,0.58 2.769,1.84 l 1.504,7.05 c 0.214,1 -0.232,2.03 -1.12,2.55" />
      <path
         id="path32"
         style="fill:#28292a;fill-opacity:1;fill-rule:nonzero;stroke:none;stroke-width:0.1"
         d="m 34.1156,801.29 c 0,0 -6.3879,-0.66 -5.2867,-8.81 1.1016,-8.15 6.666,-24.67 7.7387,-26.87 1.0722,-2.2 7.5961,-2.25 10.2226,-1.76 0,0 -8.0574,2.2 -9.0445,5.06 -0.9867,2.87 -11.1195,28.64 -3.6301,29.96 v 2.42" />
      <path
         id="path34"
         style="fill:#28292a;fill-opacity:1;fill-rule:nonzero;stroke:none;stroke-width:0.1"
         d="m 179.385,799.31 c 0,0 -5.507,-29.63 -6.829,-32.32 -1.321,-2.7 -7.149,-3.39 -7.149,-3.39 v -3.5 c 0,0 7.92,1.22 9.132,6.28 1.211,5.07 7.709,32.71 7.159,32.93 -0.551,0.22 -1.212,0.33 -2.313,0" />
      <path
         id="path36"
         style="fill:#28292a;fill-opacity:1;fill-rule:nonzero;stroke:none;stroke-width:0.1"
         d="m 99.8668,761.83 c -0.9914,-0.66 -0.0184,-2.55 2.2022,-4.41 1.983,-1.65 7.159,-2.64 11.454,3.42 0,0 -5.616,-3.88 -9.141,-1.55 -3.524,2.32 -3.194,3.42 -4.5152,2.54" />
      <path
         id="path38"
         style="fill:#28292a;fill-opacity:1;fill-rule:nonzero;stroke:none;stroke-width:0.1"
         d="m 167.861,771.63 -8.119,-7.43 -1.279,-32.06 c 0,0 -35.601,-40.16 -51.313,-21.48 -15.7117,-18.68 -51.3133,21.48 -51.3133,21.48 l -1.2793,32.06 -8.1183,7.43 c 0,0 -2.3508,-25.4 -3.6957,-37.04 -1.345,-11.65 3.0382,-11.56 8.339,-16.99 5.3016,-5.43 37.0457,-24.22 39.4035,-25.55 2.3582,-1.34 16.6641,-0.3 16.6641,-0.3 0,0 14.306,-1.04 16.664,0.3 2.358,1.33 34.454,21.48 39.755,26.9 5.301,5.43 9.685,5.35 8.34,16.99 -1.346,11.65 -4.048,35.69 -4.048,35.69" />
      <path
         id="path40"
         style="fill:#28292a;fill-opacity:1;fill-rule:nonzero;stroke:none;stroke-width:0.1"
         d="M 98.2063,913.78 C 15.7039,907.32 37.6652,812.81 37.6652,812.81 l 1.5504,0.02 c -2.4472,12.93 -14.439,92.33 59.1938,98.1 78.7806,6.17 79.8976,-75.02 72.4816,-96.48 l 1.182,0.02 c 8.347,18.75 9.67,105.85 -73.8667,99.31" />
      <path
         id="path42"
         style="fill:#28292a;fill-opacity:1;fill-rule:nonzero;stroke:none;stroke-width:0.1"
         d="m 111.068,731.15 c -1.275,0.35 -1.872,-1.1 -0.881,-1.65 0.991,-0.55 3.414,-0.55 7.489,0.82 4.075,1.38 9.032,4.24 9.472,5.46 0.441,1.21 -2.092,-1.22 -6.057,-2.65 -3.965,-1.43 -7.6,-2.64 -10.023,-1.98" />
      <path
         id="path44"
         style="fill:#28292a;fill-opacity:1;fill-rule:nonzero;stroke:none;stroke-width:0.1"
         d="m 79.9883,793.34 -5.5129,-5.26 2.2398,7.26 c -0.7132,0.22 -1.455,0.37 -2.2398,0.37 -4.2176,0 -7.6363,-3.41 -7.6363,-7.63 0,-4.22 3.4187,-7.64 7.6363,-7.64 4.2172,0 7.6355,3.42 7.6355,7.64 0,2.04 -0.8148,3.89 -2.1226,5.26" />
      <path
         id="path46"
         style="fill:#28292a;fill-opacity:1;fill-rule:nonzero;stroke:none;stroke-width:0.1"
         d="m 144.308,793.34 -5.513,-5.26 2.24,7.26 c -0.714,0.22 -1.455,0.37 -2.24,0.37 -4.218,0 -7.636,-3.41 -7.636,-7.63 0,-4.22 3.418,-7.64 7.636,-7.64 4.217,0 7.635,3.42 7.635,7.64 0,2.04 -0.814,3.89 -2.122,5.26" />
    </g>
  </g>
</svg>
