<?xml version="1.0" encoding="UTF-8" standalone="no"?>
<svg
   xmlns:dc="http://purl.org/dc/elements/1.1/"
   xmlns:cc="http://creativecommons.org/ns#"
   xmlns:rdf="http://www.w3.org/1999/02/22-rdf-syntax-ns#"
   xmlns:svg="http://www.w3.org/2000/svg"
   xmlns="http://www.w3.org/2000/svg"
   id="svg2334"
   version="1.1"
   viewBox="0 0 90 90"
   height="90mm"
   width="90mm">
  <defs
     id="defs2328" />
  <metadata
     id="metadata2331">
    <rdf:RDF>
      <cc:Work
         rdf:about="">
        <dc:format>image/svg+xml</dc:format>
        <dc:type
           rdf:resource="http://purl.org/dc/dcmitype/StillImage" />
        <dc:title></dc:title>
      </cc:Work>
    </rdf:RDF>
  </metadata>
  <g
     transform="translate(0,-207)"
     id="layer1">
    <g
       id="g4723"
       transform="matrix(0.35277777,0,0,-0.35277777,-245.07746,536.59575)">
      <path
         id="path188"
         style="fill:#28292a;fill-opacity:1;fill-rule:nonzero;stroke:none;stroke-width:0.1"
         d="m 752.178,801.29 c 0,0 -6.387,-0.66 -5.286,-8.81 1.101,-8.15 6.666,-24.67 7.738,-26.87 1.073,-2.2 7.597,-2.25 10.223,-1.76 0,0 -8.057,2.2 -9.044,5.06 -0.987,2.87 -11.12,28.64 -3.631,29.96 v 2.42" />
      <path
         id="path190"
         style="fill:#28292a;fill-opacity:1;fill-rule:nonzero;stroke:none;stroke-width:0.1"
         d="m 897.448,799.31 c 0,0 -5.507,-29.63 -6.829,-32.32 -1.321,-2.7 -7.149,-3.39 -7.149,-3.39 v -3.5 c 0,0 7.92,1.22 9.132,6.28 1.211,5.07 7.709,32.71 7.159,32.93 -0.551,0.22 -1.212,0.33 -2.313,0" />
      <path
         id="path192"
         style="fill:#28292a;fill-opacity:1;fill-rule:nonzero;stroke:none;stroke-width:0.1"
         d="m 817.93,761.83 c -0.992,-0.66 -0.019,-2.55 2.202,-4.41 1.983,-1.65 7.159,-2.64 11.454,3.42 0,0 -5.616,-3.88 -9.141,-1.55 -3.524,2.32 -3.194,3.42 -4.515,2.54" />
      <path
         id="path194"
         style="fill:#28292a;fill-opacity:1;fill-rule:nonzero;stroke:none;stroke-width:0.1"
         d="m 817.048,730.7 c 1.698,1.44 11.785,1.87 13.547,0.99 1.762,-0.88 0.11,-2.2 -2.643,-2.31 -2.753,-0.11 -5.397,1.1 -7.489,0 -2.093,-1.11 -5.617,-0.56 -3.415,1.32" />
      <path
         id="path196"
         style="fill:#28292a;fill-opacity:1;fill-rule:nonzero;stroke:none;stroke-width:0.1"
         d="m 814.736,720.34 c 0.523,1.05 6.828,2.76 8.15,2.54 1.321,-0.22 -2.313,-2.1 -4.075,-3.09 -1.763,-0.99 -5.066,-1.43 -4.075,0.55" />
      <path
         id="path198"
         style="fill:#28292a;fill-opacity:1;fill-rule:nonzero;stroke:none;stroke-width:0.1"
         d="m 824.162,741.49 c -0.05,2.56 3.62,9.93 10.668,7.88 7.049,-2.04 10.133,-10.08 20.155,-9.86 10.023,0.22 15.86,7.06 16.521,9.86 0,0 2.973,-14.93 -17.182,-21.53 -20.154,-6.61 -30.037,7.26 -30.162,13.65" />
      <path
         id="path200"
         style="fill:#28292a;fill-opacity:1;fill-rule:nonzero;stroke:none;stroke-width:0.1"
         d="m 824.161,741.49 c 0.05,2.56 -3.619,9.93 -10.668,7.88 -7.049,-2.04 -10.133,-10.08 -20.155,-9.86 -10.022,0.22 -15.86,7.06 -16.52,9.86 0,0 -2.974,-14.93 17.181,-21.53 20.155,-6.61 30.038,7.26 30.162,13.65" />
      <path
         id="path202"
         style="fill:#28292a;fill-opacity:1;fill-rule:nonzero;stroke:none;stroke-width:0.1"
         d="m 885.924,771.63 -8.119,-7.43 -1.279,-32.06 c 0,0 -35.601,-40.16 -51.313,-21.48 -15.712,-18.68 -51.313,21.48 -51.313,21.48 l -1.28,32.06 -8.118,7.43 c 0,0 -2.351,-25.4 -3.696,-37.04 -1.345,-11.65 3.038,-11.56 8.34,-16.99 5.301,-5.43 37.045,-24.22 39.403,-25.55 2.358,-1.34 16.664,-0.3 16.664,-0.3 0,0 14.306,-1.04 16.664,0.3 2.358,1.33 34.454,21.48 39.755,26.9 5.301,5.43 9.685,5.35 8.34,16.99 -1.346,11.65 -4.048,35.69 -4.048,35.69" />
      <path
         id="path204"
         style="fill:#28292a;fill-opacity:1;fill-rule:nonzero;stroke:none;stroke-width:0.1"
         d="m 799.862,793.34 -5.513,-5.26 2.24,7.26 c -0.714,0.22 -1.456,0.37 -2.24,0.37 -4.218,0 -7.637,-3.41 -7.637,-7.63 0,-4.22 3.419,-7.64 7.637,-7.64 4.217,0 7.635,3.42 7.635,7.64 0,2.04 -0.815,3.89 -2.122,5.26" />
      <path
         id="path206"
         style="fill:#28292a;fill-opacity:1;fill-rule:nonzero;stroke:none;stroke-width:0.1"
         d="m 858.894,793.34 -5.512,-5.26 2.239,7.26 c -0.713,0.22 -1.455,0.37 -2.239,0.37 -4.218,0 -7.637,-3.41 -7.637,-7.63 0,-4.22 3.419,-7.64 7.637,-7.64 4.217,0 7.635,3.42 7.635,7.64 0,2.04 -0.815,3.89 -2.123,5.26" />
      <path
         id="path208"
         style="fill:#28292a;fill-opacity:1;fill-rule:nonzero;stroke:none;stroke-width:0.1"
         d="m 896.351,871.59 c -12.776,22.69 -33.922,35.03 -33.922,35.03 -48.901,25.99 -71.368,5.5 -71.368,5.5 -2.203,-0.66 -0.661,7.71 -0.661,7.71 -3.965,-2.42 -8.811,-9.25 -8.811,-9.25 -1.101,-0.44 -0.22,5.29 -0.22,5.29 0,0 -1.983,-0.88 -3.745,-3.97 -1.762,-3.08 -1.982,-6.6 -1.982,-6.6 l -1.322,2.42 c -0.881,-3.97 -21.587,-28.86 -21.587,-28.86 -2.863,-19.82 -4.185,-51.98 -2.423,-55.07 1.762,-3.08 5.418,-10.98 5.418,-10.98 l 9.414,0.85 c -0.3,1.59 -3.524,66.96 28.782,61.09 0,0 86.64,-23.2 88.696,-56.98 l 7.516,-3.3 c 6.99,7.36 4.2,24.99 3.656,28.03 -0.002,0.07 -0.003,0.14 -0.006,0.21 1.736,-5.32 3.446,-14.29 3.446,-14.29 -0.441,11.01 -3.525,23.35 -3.525,23.35 3.304,-5.51 5.287,-9.47 5.287,-9.47 -1.542,11.23 -7.489,24.89 -7.489,24.89 3.744,-5.73 7.929,-18.28 7.929,-18.28 1.102,11.23 -3.083,22.68 -3.083,22.68" />
      <path
         id="path210"
         style="fill:#28292a;fill-opacity:1;fill-rule:nonzero;stroke:none;stroke-width:0.1"
         d="m 882.017,783.57 c -1.859,-6.78 -2.376,-11.85 -14.867,-12.25 -12.49,-0.4 -23.569,-0.51 -28.183,10.67 -4.614,11.19 -4.87,14.14 -5.054,17.86 -0.189,3.83 4.793,7.37 13.195,8.33 8.403,0.97 22.202,1.54 31.226,-1.19 9.024,-2.74 5.542,-16.63 3.683,-23.42 z m -70.593,-1.58 c -4.614,-11.18 -15.693,-11.07 -28.183,-10.67 -12.491,0.4 -13.008,5.47 -14.867,12.25 -1.859,6.79 -5.341,20.68 3.683,23.42 9.024,2.73 22.823,2.16 31.226,1.19 8.402,-0.96 13.385,-4.5 13.195,-8.33 -0.184,-3.72 -0.44,-6.67 -5.054,-17.86 z m 84.134,28.94 c -15.084,3.01 -38.347,6.26 -48.692,4.38 -10.768,-1.96 -13.456,-3.08 -14.661,-5.34 -1.205,-2.25 -5.148,-2.36 -7.009,-2.45 -1.862,0.09 -5.805,0.2 -7.01,2.45 -1.205,2.26 -6.065,3.49 -16.918,4.9 -12.422,1.61 -31.351,-0.93 -46.435,-3.94 -1.061,-0.21 -1.817,-1.15 -1.795,-2.23 0.049,-2.44 0.265,-6.95 1.129,-11.6 0.207,-1.12 1.208,-1.91 2.344,-1.85 l 4.003,0.24 c 0,0 1.354,-10.26 3.353,-18.72 2.178,-9.21 8.315,-11.6 22.808,-11.44 14.494,0.16 20.975,0.28 25.771,8.49 4.796,8.21 6.505,17.92 12.75,17.95 5.921,0.08 7.953,-9.74 12.749,-17.95 4.796,-8.21 11.277,-8.33 25.771,-8.49 14.493,-0.16 20.63,2.23 22.808,11.44 1.999,8.46 3.353,18.72 3.353,18.72 l 4.002,-0.24 c 1.137,-0.06 2.138,0.73 2.345,1.85 0.864,4.65 1.08,9.16 1.129,11.6 0.022,1.08 -0.734,2.02 -1.795,2.23" />
    </g>
  </g>
</svg>
