<svg height="512pt" viewBox="0 -61 512.001 512" width="512pt" xmlns="http://www.w3.org/2000/svg"><path d="m432.363281 122.574219c-58.148437-40.988281-119.132812-62.65625-176.363281-62.65625s-118.214844 21.667969-176.359375 62.65625c-35.296875 24.882812-58.320313 47.6875-79.640625 72.164062 20.550781 23.59375 43.480469 46.671875 79.640625 72.160157 58.144531 40.992187 119.128906 62.65625 176.359375 62.65625s118.214844-21.664063 176.363281-62.65625c35.300781-24.882813 58.324219-47.691407 79.636719-72.160157-20.550781-23.597656-43.480469-46.671875-79.636719-72.164062zm-191.339843-31.621094v28.886719h-29.960938v29.957031h29.960938v29.960937c-44.75 0-42.835938 0-88.804688 0 6.585938-45.855468 42.949219-82.214843 88.804688-88.804687zm-59.921876 118.765625v29.957031h29.960938v-29.957031h29.960938v88.804688c-45.855469-6.589844-82.21875-42.953126-88.804688-88.804688zm89.878907 88.804688v-28.886719h29.960937v-29.960938h-29.960937v-29.96875h88.804687c-6.585937 45.855469-42.949218 82.226563-88.804687 88.816407zm59.921875-118.765626v-29.960937h-29.960938v29.960937h-29.960937v-88.804687c45.855469 6.589844 82.21875 42.949219 88.804687 88.804687zm-290.480469 14.980469c10.875-10.976562 30.804687-29.648437 57.101563-48.113281 13.359374-9.378906 29.429687-19.410156 47.535156-28.390625-15.046875 21.75-23.875 48.113281-23.875 76.503906s8.828125 54.753907 23.875 76.503907c-18.105469-8.984376-34.175782-19.011719-47.535156-28.394532-26.300782-18.464844-46.226563-37.136718-57.101563-48.109375zm326.5 76.539063c15.058594-21.757813 23.898437-48.132813 23.898437-76.539063 0-28.390625-8.828124-54.753906-23.875-76.503906 18.105469 8.980469 34.175782 19.011719 47.535157 28.390625 26.292969 18.464844 46.21875 37.128906 57.09375 48.109375-10.808594 10.886719-30.578125 29.371094-56.785157 47.816406-14.199218 9.992188-30.289062 19.972657-47.867187 28.726563zm0 0"/><path d="m30.304688 29.960938h60.917968v-29.960938h-90.875v89.878906h29.957032zm0 0"/><path d="m.347656 299.597656v89.878906h90.875v-29.960937h-60.917968v-59.917969zm0 0"/><path d="m511.65625 89.878906v-89.878906h-90.878906v29.960938h60.917968v59.917968zm0 0"/><path d="m481.695312 359.515625h-60.917968v29.960937h90.878906v-89.878906h-29.960938zm0 0"/></svg>