<?xml version="1.0" encoding="iso-8859-1"?>
<!-- Generator: Adobe Illustrator 16.0.0, SVG Export Plug-In . SVG Version: 6.00 Build 0)  -->
<!DOCTYPE svg PUBLIC "-//W3C//DTD SVG 1.1//EN" "http://www.w3.org/Graphics/SVG/1.1/DTD/svg11.dtd">
<svg version="1.1" id="Capa_1" xmlns="http://www.w3.org/2000/svg" xmlns:xlink="http://www.w3.org/1999/xlink" x="0px" y="0px"
	 width="530.073px" height="530.074px" viewBox="0 0 530.073 530.074" style="enable-background:new 0 0 530.073 530.074;"
	 xml:space="preserve">
<g>
	<g>
		<path d="M133.487,213.273c18.4,59.8,65.7,122,129.6,122c64,0,111.2-62,129.6-122c15.7-5.4,28.9-21,34.101-41.2
			c4.2-16.5,2.399-33.1-5.2-45.6c-4.8-8.1-11.6-13.5-19.6-16.3c38.699-137.9-215.601-135.9-271.5-51.6c-11,16.6-16.4,36.4-13.2,54.9
			c-5,3-9.3,7.4-12.7,13c-7.4,12.5-9.3,29.1-5.2,45.6C104.687,192.273,117.887,207.873,133.487,213.273z M405.987,166.773
			c-4.2,16.2-14.801,25.7-23.301,26.9l-7,0.9l-1.899,6.8c-15.4,55.8-58.3,112.3-110.7,112.3c-52.4,0-95.4-56.4-110.7-112.3l-1.9-6.8
			l-7-0.9c-8.5-1.1-19.2-10.8-23.3-26.9c-2.8-10.9-1.7-21.8,2.8-29.3c0.6-1,1.3-2,2.2-3c2.1,3.5,4.6,7,7.7,10.1
			c14.9,15.6,38,22.8,59.2,19c48.6-8.8,77.2-22.9,110-46.9c30.2-22.1,37.1-11.8,54.9,7c6.399,6.8,15,8.6,23.1,7.2v0.1l10.1-0.9
			c1.5-0.1,3-0.1,4.2,0.1c4.5,1.1,7.4,4.6,9,7.4C407.687,145.073,408.787,155.973,405.987,166.773z"/>
		<path d="M384.487,297.374c-12.9,22-27.801,40.6-47.7,50.7c-40.801,20.899-71.2,37.8-71.2,37.8l-0.1-0.1v-0.4l-0.4,0.2l-0.4-0.2
			v0.4l-0.1,0.1c0,0-30.4-16.9-71.2-37.8c-19.7-10.101-34.7-28.7-47.7-50.7c-60.7,24.6-102.8,81.1-102.8,130.4
			c0,51.899,0,102.3,0,102.3h221.8h0.9h221.6c0,0,0-50.4,0-102.3C487.087,378.374,444.987,321.973,384.487,297.374z"/>
	</g>
</g>
<g>
</g>
<g>
</g>
<g>
</g>
<g>
</g>
<g>
</g>
<g>
</g>
<g>
</g>
<g>
</g>
<g>
</g>
<g>
</g>
<g>
</g>
<g>
</g>
<g>
</g>
<g>
</g>
<g>
</g>
</svg>
