<?xml version="1.0" encoding="iso-8859-1"?>
<!-- Generator: Adobe Illustrator 16.0.0, SVG Export Plug-In . SVG Version: 6.00 Build 0)  -->
<!DOCTYPE svg PUBLIC "-//W3C//DTD SVG 1.1//EN" "http://www.w3.org/Graphics/SVG/1.1/DTD/svg11.dtd">
<svg version="1.1" id="Capa_1" xmlns="http://www.w3.org/2000/svg" xmlns:xlink="http://www.w3.org/1999/xlink" x="0px" y="0px"
	 width="537.1px" height="537.1px" viewBox="0 0 537.1 537.1" style="enable-background:new 0 0 537.1 537.1;" xml:space="preserve"
	>
<g>
	<g>
		<path d="M146.799,231.6c17.2,56.9,61.8,116,122.1,116s104.7-59,122.101-116c14.799-5.2,27.199-19.9,32-39.1
			c5.799-23.1-1-44.8-15.701-54.8C401.199,60.6,341.5,0,268.799,0c-72.7,0-132.3,60.6-138.4,137.8c-14.6,10-21.4,31.6-15.7,54.8
			C119.5,211.8,132,226.6,146.799,231.6z M381.4,213.4l-6.602,0.9L373,220.8c-5,18.4-13.1,36.7-23.6,53
			C329.5,304.6,301.1,327.6,268.799,327.6c-32.3,0-60.7-23.199-80.5-54c-10.5-16.2-18.6-34.5-23.6-53l-1.8-6.5l-6.6-0.9
			c-8-1.1-18-10.2-21.8-25.5c-4-16.1,1.1-32.5,11.1-34.9c0.7-0.1,1.3-0.2,2.1-0.2c0.6,0,1.1,0,1.7,0.1l9.5,0.9l1.5-9.5
			c3-20.5,9.6-38.9,18.8-54.3h179.5c9.201,15.6,15.801,33.8,18.801,54.3l1.5,9.5l9.5-0.9c1.299-0.1,2.799-0.1,3.799,0.1
			c10,2.5,15.102,18.8,11.102,34.9C399.4,203.1,389.299,212.3,381.4,213.4z"/>
		<path d="M390,300.5c-13.1,22.4-28.301,41.2-48.5,51.5c-41.601,21.301-72.5,38.5-72.5,38.5l-0.1-0.1V390l-0.4,0.2l-0.4-0.2v0.4
			l-0.1,0.1c0,0-30.9-17.199-72.5-38.5c-20.2-10.3-35.3-29.199-48.5-51.5C85.5,325.6,42.6,383,42.6,433.1c0,52.9,0,104,0,104h225.5
			h0.9h225.5c0,0,0-51.199,0-104C494.4,382.801,451.5,325.5,390,300.5z"/>
	</g>
</g>
<g>
</g>
<g>
</g>
<g>
</g>
<g>
</g>
<g>
</g>
<g>
</g>
<g>
</g>
<g>
</g>
<g>
</g>
<g>
</g>
<g>
</g>
<g>
</g>
<g>
</g>
<g>
</g>
<g>
</g>
</svg>
