<?xml version="1.0" encoding="UTF-8" standalone="no"?>
<svg
   xmlns:dc="http://purl.org/dc/elements/1.1/"
   xmlns:cc="http://creativecommons.org/ns#"
   xmlns:rdf="http://www.w3.org/1999/02/22-rdf-syntax-ns#"
   xmlns:svg="http://www.w3.org/2000/svg"
   xmlns="http://www.w3.org/2000/svg"
   id="svg2334"
   version="1.1"
   viewBox="0 0 90 90"
   height="90mm"
   width="90mm">
  <defs
     id="defs2328" />
  <metadata
     id="metadata2331">
    <rdf:RDF>
      <cc:Work
         rdf:about="">
        <dc:format>image/svg+xml</dc:format>
        <dc:type
           rdf:resource="http://purl.org/dc/dcmitype/StillImage" />
        <dc:title></dc:title>
      </cc:Work>
    </rdf:RDF>
  </metadata>
  <g
     transform="translate(0,-207)"
     id="layer1">
    <g
       id="g3484"
       transform="matrix(0.35277777,0,0,-0.35277777,-76.955581,828.16881)">
      <path
         id="path252"
         style="fill:#28292a;fill-opacity:1;fill-rule:nonzero;stroke:none;stroke-width:0.1"
         d="m 401.303,1593.82 c -1.859,-6.78 -2.376,-11.86 -14.867,-12.26 -12.49,-0.39 -23.569,-0.5 -28.183,10.68 -4.614,11.19 -4.87,14.14 -5.054,17.86 -0.189,3.83 4.793,7.37 13.196,8.33 8.402,0.97 22.201,1.54 31.225,-1.19 9.025,-2.74 5.542,-16.63 3.683,-23.42 z m -70.593,-1.58 c -4.614,-11.18 -15.693,-11.07 -28.183,-10.68 -12.491,0.4 -13.008,5.48 -14.867,12.26 -1.859,6.79 -5.341,20.68 3.683,23.42 9.024,2.73 22.824,2.16 31.226,1.19 8.402,-0.96 13.385,-4.5 13.195,-8.33 -0.184,-3.72 -0.44,-6.67 -5.054,-17.86 z m 84.134,28.94 c -15.084,3.01 -38.347,6.26 -48.692,4.38 -10.768,-1.97 -13.456,-3.08 -14.661,-5.34 -1.205,-2.25 -5.148,-2.36 -7.009,-2.46 -1.861,0.1 -5.805,0.21 -7.01,2.46 -1.205,2.26 -6.064,3.49 -16.918,4.9 -12.422,1.61 -31.351,-0.93 -46.435,-3.94 -1.06,-0.21 -1.817,-1.15 -1.795,-2.24 0.049,-2.43 0.265,-6.94 1.129,-11.59 0.207,-1.12 1.209,-1.91 2.345,-1.85 l 4.002,0.24 c 0,0 1.354,-10.26 3.353,-18.72 2.178,-9.21 8.315,-11.6 22.808,-11.44 14.494,0.16 20.975,0.28 25.771,8.49 4.796,8.21 6.505,17.92 12.75,17.95 5.922,0.08 7.953,-9.74 12.749,-17.95 4.796,-8.21 11.277,-8.33 25.771,-8.49 14.493,-0.16 20.63,2.23 22.808,11.44 1.999,8.46 3.353,18.72 3.353,18.72 l 4.003,-0.24 c 1.136,-0.06 2.137,0.73 2.344,1.85 0.864,4.65 1.08,9.16 1.129,11.59 0.022,1.09 -0.734,2.03 -1.795,2.24" />
      <g
         transform="scale(0.10696)"
         id="g254">
        <path
           id="path256"
           style="fill:#28292a;fill-opacity:1;fill-rule:nonzero;stroke:none"
           d="m 3446.99,16029.1 c 16.33,35.6 36.11,89.1 40.77,147.3 8.24,103 -261.54,123.6 -261.54,123.6 0,0 -269.78,-20.6 -261.55,-123.6 4.67,-58.2 24.45,-111.7 40.77,-147.3 -257.46,-69.8 -622.78,-271.8 -413.51,-853.5 l 63.84,12.3 c 0,0 -65.9,698.2 570.45,395.4 636.35,302.8 570.44,-395.4 570.44,-395.4 l 63.85,-12.3 c 209.26,581.7 -156.05,783.7 -413.52,853.5" />
      </g>
      <path
         id="path258"
         style="fill:#28292a;fill-opacity:1;fill-rule:nonzero;stroke:none;stroke-width:0.1"
         d="m 339.13,1571.2 c -0.817,0.47 -0.661,-1.54 0,-1.87 0.66,-0.33 5.947,-1.99 11.234,0.93 0,0 -7.38,-1.26 -11.234,0.94" />
      <path
         id="path260"
         style="fill:#28292a;fill-opacity:1;fill-rule:nonzero;stroke:none;stroke-width:0.1"
         d="m 339.35,1547.19 c -1.045,0.7 -1.101,-1.54 0,-1.98 1.101,-0.44 4.516,-1.1 8.15,0 0,0 -5.837,0.44 -8.15,1.98" />
      <path
         id="path262"
         style="fill:#28292a;fill-opacity:1;fill-rule:nonzero;stroke:none;stroke-width:0.1"
         d="m 272.324,1607.1 -0.487,3.97 c 0,0 -2.864,0.33 -5.397,-1.98 -2.533,-2.32 -5.507,-16.41 15.309,-29.41 0,0 -22.485,22.36 -9.425,27.42" />
      <path
         id="path264"
         style="fill:#28292a;fill-opacity:1;fill-rule:nonzero;stroke:none;stroke-width:0.1"
         d="m 416.817,1607.1 0.487,3.97 c 0,0 2.864,0.33 5.397,-1.98 2.533,-2.32 5.506,-16.41 -15.309,-29.41 0,0 22.485,22.36 9.425,27.42" />
      <path
         id="path266"
         style="fill:#28292a;fill-opacity:1;fill-rule:nonzero;stroke:none;stroke-width:0.1"
         d="m 393.172,1575.07 c -11.755,-26.91 -21.447,-41.65 -38.408,-50.35 -4.16,-2.13 -10.295,-1.65 -10.295,-1.65 0,0 -6.136,-0.48 -10.295,1.65 -16.961,8.7 -26.653,23.44 -38.409,50.35 l -2.232,0.5 c 0,0 16.961,-46.22 42.726,-53.46 0,0 3.642,-1.35 8.21,-1.35 4.568,0 8.21,1.35 8.21,1.35 25.764,7.24 42.725,53.46 42.725,53.46 l -2.232,-0.5" />
      <path
         id="path268"
         style="fill:#28292a;fill-opacity:1;fill-rule:nonzero;stroke:none;stroke-width:0.1"
         d="m 318.871,1606.64 -5.513,-5.26 2.24,7.26 c -0.714,0.22 -1.455,0.37 -2.24,0.37 -4.218,0 -7.637,-3.42 -7.637,-7.63 0,-4.22 3.419,-7.64 7.637,-7.64 4.217,0 7.635,3.42 7.635,7.64 0,2.04 -0.814,3.89 -2.122,5.26" />
      <path
         id="path270"
         style="fill:#28292a;fill-opacity:1;fill-rule:nonzero;stroke:none;stroke-width:0.1"
         d="m 381.428,1606.64 -5.513,-5.26 2.24,7.26 c -0.714,0.22 -1.455,0.37 -2.24,0.37 -4.218,0 -7.636,-3.42 -7.636,-7.63 0,-4.22 3.418,-7.64 7.636,-7.64 4.217,0 7.636,3.42 7.636,7.64 0,2.04 -0.815,3.89 -2.123,5.26" />
    </g>
  </g>
</svg>
